<svg id="Capa_1" data-name="Capa 1" xmlns="http://www.w3.org/2000/svg" viewBox="0 0 633.87 125.96"><defs><style>.cls-1{fill:#dedd86}.cls-2{fill:#b2b867}.cls-3{fill:#00002b}.cls-4{fill:#cb6138}</style></defs><title>logo</title><path class="cls-1" d="M114.5 27.03h16.67v98.5H114.5z"/><path class="cls-2" d="M93.28 44.22h16.67v81.31H93.28zM50.4 14.76h16.67v110.77H50.4z"/><path class="cls-1" d="M28.74 35.62h16.67v89.9H28.74z"/><path class="cls-2" d="M6.65 91.47h16.67v34.05H6.65z"/><path class="cls-1" d="M72.06 54.65h16.67v70.88H72.06z"/><path class="cls-3" d="M224.32 336.69l.36 9.82 4.21.83v3l-10-.12-9.6.18v-3l4-.83.24-9.84v-7.47l-.17-10.26-4.86-.83v-3q1.66-.12 3.14-.27a24.49 24.49 0 0 0 2.61-.38q1.72-.24 5.75-1.24h4.74l-.41 9.53z" transform="translate(-25.6 -243.48)"/><path class="cls-4" d="M212.06 303.53a6.55 6.55 0 0 1 1.56-4H133.3a4 4 0 0 0-3.84 3l-7 26.24-14.76-82a4 4 0 0 0-7.76-.3L84 307.2l-12.46-34.88a4 4 0 0 0-7.51.06L49 320.44H29.57a4 4 0 0 0 0 8h22.28a4 4 0 0 0 3.76-2.7l12.28-40 13 36.23a4 4 0 0 0 7.59-.33l14.63-55.76 14.74 81.83a4 4 0 0 0 3.75 3.27h.16a4 4 0 0 0 3.84-3l10.77-40.56h77.07a6.67 6.67 0 0 1-1.38-3.89z" transform="translate(-25.6 -243.48)"/><path class="cls-3" d="M270.13 336.69l.42 9.82 4 .83v3l-9.78-.12-5.33.18v-20.26a17 17 0 0 0-1.13-7.05q-1.13-2.37-4.41-2.37a5.52 5.52 0 0 0-5.09 2.93 14.12 14.12 0 0 0-1.7 7.19v5.86l.47 9.82 3.91.83v3l-9.72-.12-9.78.18v-3l4.09-.83.24-9.84v-7.47l-.2-10.27-4.92-.83v-3l2.55-.21a31.54 31.54 0 0 0 3.26-.5q1.3-.18 2.7-.47t3.11-.71h4.62l-.3 6a16.09 16.09 0 0 1 5.63-4.56 15.26 15.26 0 0 1 6.58-1.48q5.16 0 8 3.14t2.81 8.82zm36.33 3.17l3.26 3.85a26.31 26.31 0 0 1-7.17 5.25 21.57 21.57 0 0 1-4.65 1.66 22.5 22.5 0 0 1-5.07.55q-8.77 0-14.16-4.74t-5.39-12.68a18.58 18.58 0 0 1 6.66-14.75q6.67-5.72 16.8-5.72a28.45 28.45 0 0 1 7.23.83q1.48.35 2.61.71a12.43 12.43 0 0 1 1.72.65l-1.6 4.68q-.36 1.07-.56 1.9t-.62 2.67l-3.14-.47-.3-3.08a9 9 0 0 0-2.78-1.45 12.76 12.76 0 0 0-4.3-.72 8.68 8.68 0 0 0-7.29 3.2q-2.49 3.2-2.49 9.19a12.42 12.42 0 0 0 3.26 8.86 11 11 0 0 0 8.42 3.47 12.09 12.09 0 0 0 5.87-1.48 22.32 22.32 0 0 0 3.69-2.38zm45.75-7.64a17.41 17.41 0 0 1-6 13.63q-6 5.33-15.26 5.33T316 346q-5.63-5.22-5.63-13.75a17.42 17.42 0 0 1 6-13.66q6-5.3 15.35-5.3t14.9 5.24q5.6 5.22 5.59 13.69zm-11.91 0q0-6.1-2.4-9.84a7.62 7.62 0 0 0-6.79-3.73 7.38 7.38 0 0 0-6.52 3.67 15.64 15.64 0 0 0-1.72 4.36 23.7 23.7 0 0 0-.59 5.54 17.64 17.64 0 0 0 2.46 9.81 7.6 7.6 0 0 0 6.67 3.76 7.36 7.36 0 0 0 6.55-3.68q2.34-3.67 2.34-9.89zm51.56 4.47l.41 9.82 4 .83v3l-9.78-.12-5.34.18v-20.26a17 17 0 0 0-1.13-7.05q-1.13-2.37-4.4-2.37a5.52 5.52 0 0 0-5.09 2.93 14.13 14.13 0 0 0-1.7 7.19v5.86l.48 9.82 3.91.83v3l-9.72-.12-9.78.18v-3l4.09-.83.24-9.84v-7.47l-.21-10.27-4.92-.83v-3l2.55-.21a31.53 31.53 0 0 0 3.26-.5c.87-.12 1.77-.28 2.7-.47s2-.43 3.11-.71h4.62l-.3 6a16.11 16.11 0 0 1 5.63-4.56 15.26 15.26 0 0 1 6.58-1.48q5.16 0 8 3.14t2.81 8.82zm43.59 1.47a20.92 20.92 0 0 1-6.37 7.78 23.81 23.81 0 0 1-10.51 4.8q-8.79 1.7-15.11-2t-7.87-11.7a19.44 19.44 0 0 1 3.05-15.14q4.65-6.87 13.78-8.64 7.34-1.42 12.62 1.12t6.66 9.64l.43 3.18-24.85 4.8a21.12 21.12 0 0 0 1.7 5.35 11.85 11.85 0 0 0 2.63 3.6q3.21 2.88 9.43 1.68a12.84 12.84 0 0 0 6.24-3 18.78 18.78 0 0 0 3.75-4.34zm-28.81-10.71l1.65-.32 1.94-.38 2.26-.44q2.2-.43 3.85-.9t4.06-1.36l-.3-1.52a5.21 5.21 0 0 0-2.39-3.64 6 6 0 0 0-4.46-.69 7.51 7.51 0 0 0-5.61 4.27 13 13 0 0 0-1 4.98zm29.43-.33a12 12 0 0 1 5.13-10 20.58 20.58 0 0 1 12.65-3.82 19.34 19.34 0 0 1 3.26.24l7.11 1.07a94.34 94.34 0 0 0 10.61.41l.12 3.26-2.61.41-4 .42a11.41 11.41 0 0 1 3.26 8.32 11.61 11.61 0 0 1-5.09 9.83q-5.08 3.72-13.12 3.71a21 21 0 0 1-4.73-.41l-.41 1.3a13.17 13.17 0 0 0-1.12 4l1.6-.41a12.91 12.91 0 0 1 2.6-.5 35.68 35.68 0 0 1 4.08-.21q8.34 0 13.45 2.54t5.12 8.81q0 5.79-6.4 9.58a28.56 28.56 0 0 1-14.82 3.78 24.51 24.51 0 0 1-12.56-3q-5-3-5-7a5.11 5.11 0 0 1 .89-3.07 13.46 13.46 0 0 1 2-2.24l5.63 3.36q0 1.77 3.2 3.71t8.71 1.94a10.06 10.06 0 0 0 4.92-1.24 3.52 3.52 0 0 0 2.37-3.24q0-2.53-4.5-3.94a18.45 18.45 0 0 0-4.8-.59 52.4 52.4 0 0 0-9.07 1 15 15 0 0 0-2.88-3.67 13.06 13.06 0 0 0-2.64-2.43l2-4.39q.83-2 1.13-2.82a30.55 30.55 0 0 0 1-3.05 13.65 13.65 0 0 1-2.49-1.54q-4.6-3.42-4.6-10.12zm17.78-8.47a6.12 6.12 0 0 0-4.92 2.37 10.6 10.6 0 0 0-1.78 6.22 9.32 9.32 0 0 0 1.87 6 6 6 0 0 0 4.89 2.31 5.84 5.84 0 0 0 4.89-2.25 9.71 9.71 0 0 0 1.75-6.1 10.65 10.65 0 0 0-1.72-6.28 5.93 5.93 0 0 0-4.98-2.27zm63.06 13.57a17.41 17.41 0 0 1-6 13.63q-6 5.33-15.26 5.33T480.7 346q-5.63-5.22-5.63-13.75a17.42 17.42 0 0 1 6-13.66q6-5.3 15.35-5.3t14.9 5.24q5.59 5.22 5.59 13.69zm-11.91 0q0-6.1-2.4-9.84a7.62 7.62 0 0 0-6.78-3.73 7.38 7.38 0 0 0-6.52 3.67 15.7 15.7 0 0 0-1.72 4.36 23.75 23.75 0 0 0-.59 5.54 17.64 17.64 0 0 0 2.46 9.81 7.6 7.6 0 0 0 6.67 3.76 7.36 7.36 0 0 0 6.55-3.68q2.33-3.67 2.33-9.89zm48.24 7.64l3.26 3.85a26.3 26.3 0 0 1-7.17 5.25 21.59 21.59 0 0 1-4.65 1.66 22.49 22.49 0 0 1-5.07.55q-8.77 0-14.16-4.74t-5.39-12.68a18.58 18.58 0 0 1 6.66-14.75q6.67-5.72 16.8-5.72a28.45 28.45 0 0 1 7.23.83q1.48.35 2.61.71a12.41 12.41 0 0 1 1.72.65l-1.6 4.68q-.36 1.07-.56 1.9t-.62 2.67l-3.14-.47-.3-3.08a9 9 0 0 0-2.78-1.45 12.75 12.75 0 0 0-4.33-.68 8.67 8.67 0 0 0-7.29 3.2q-2.49 3.2-2.49 9.19a12.42 12.42 0 0 0 3.26 8.86 11 11 0 0 0 8.42 3.47 12.09 12.09 0 0 0 5.87-1.48 22.28 22.28 0 0 0 3.72-2.42zm20.76-3.17l.35 9.82 4.21.83v3l-10-.12-9.6.18v-3l4-.83.24-9.84v-7.47l-.12-10.26-4.86-.83v-3q1.66-.12 3.14-.27a24.44 24.44 0 0 0 2.61-.38q1.72-.24 5.75-1.24h4.74l-.41 9.53z" transform="translate(-25.6 -243.48)"/><path class="cls-3" d="M619 332.22a17.41 17.41 0 0 1-6 13.63q-6 5.33-15.26 5.33T582.81 346q-5.63-5.22-5.63-13.75a17.42 17.42 0 0 1 6-13.66q6-5.3 15.35-5.3t14.9 5.24q5.57 5.22 5.57 13.69zm-11.91 0q0-6.1-2.4-9.84a7.62 7.62 0 0 0-6.79-3.73 7.38 7.38 0 0 0-6.52 3.67 15.7 15.7 0 0 0-1.72 4.36 23.75 23.75 0 0 0-.59 5.54 17.64 17.64 0 0 0 2.46 9.81 7.6 7.6 0 0 0 6.67 3.76 7.36 7.36 0 0 0 6.55-3.68q2.36-3.67 2.36-9.89zm46.84 6.19q0 5.38-5 9.08a20.42 20.42 0 0 1-12.47 3.7 37.5 37.5 0 0 1-17.31-4.09l3.2-4.3 2.78-4.41 2.73 1.29-.41 3.06a23.88 23.88 0 0 0 3.38 1.71 16.6 16.6 0 0 0 5.87.94 9.14 9.14 0 0 0 4.59-1.09 3.37 3.37 0 0 0 1.93-3 3.51 3.51 0 0 0-2.28-3.16 33.17 33.17 0 0 0-6.85-2.25 28.3 28.3 0 0 1-8.42-3.49 7.8 7.8 0 0 1-3.85-7.07 9.87 9.87 0 0 1 5.15-8.84 23.7 23.7 0 0 1 12.62-3.17 37.12 37.12 0 0 1 7.23.68 25.38 25.38 0 0 1 5.39 1.57l-3.08 8.83-3.14-.65v-2.55a28.56 28.56 0 0 0-4-1.42 19 19 0 0 0-4.68-.71 6.77 6.77 0 0 0-4 .95 2.64 2.64 0 0 0-1.24 2.42q0 1.48 2 2.54a20.06 20.06 0 0 0 2.88 1.06q1.92.59 4.77 1.36 6.58 1.6 9.4 4.26a9 9 0 0 1 2.81 6.75z" transform="translate(-25.6 -243.48)"/><path class="cls-4" d="M563.15 307.46a6.67 6.67 0 0 1-1.37-3.92 6.55 6.55 0 0 1 1.56-4H224.43a7.7 7.7 0 0 1 1 1.37 6.19 6.19 0 0 1 .56 2.66 6.59 6.59 0 0 1-1.43 3.92zM624 284.81l-13.54-6.75-1.89-.94-1.65 1.75-22.24 20.65h-10.53a7.65 7.65 0 0 1 1 1.38 6.18 6.18 0 0 1 .57 2.65 6.6 6.6 0 0 1-1.43 3.92h16.87l19.15-20.79 13.15 3 1.55.6 1-1.07 33.5-36.57z" transform="translate(-25.6 -243.48)"/><path class="cls-3" d="M176.14 329.55v5.87l.18 6.76a25.74 25.74 0 0 0 .12 2.88 5.45 5.45 0 0 0 .35 1.51l4.09.83v3l-10.79-.18-10.73.18v-3l4.09-.83a13.08 13.08 0 0 0 .33-2.16q.15-1.57.15-2.22l.18-6.76v-16.55l-.18-6.7a22.2 22.2 0 0 0-.15-2.75 9.82 9.82 0 0 0-.33-1.69l-4.09-.77v-3l10.73.18 17.31-.36q7.94 0 12 3t4.09 9.13a11 11 0 0 1-3 7.38q-3 3.41-8.95 4.59l15.94 18.61 2.19.89.06 3q-1.6 0-4 .09l-2.49.09-6.28.53-1.48.24-5.48-7.8q-2-2.73-3.73-5.1l-6.7-8.89zm.18-6l4.17.36q4.94 0 7.61-1.87a6.63 6.63 0 0 0 2.68-5.84q0-3.5-2.21-4.89t-6.79-1.39h-2.88a13.51 13.51 0 0 0-1.38.06 5.14 5.14 0 0 0-1.2.3zm423.92-18.42a1.3 1.3 0 0 1 1.09.51 1.35 1.35 0 0 1 .24 1.19 2.16 2.16 0 0 1-.79 1.21 2.09 2.09 0 0 1-1.32.51 1.34 1.34 0 0 1-1.11-.5 1.36 1.36 0 0 1-.23-1.22 2.32 2.32 0 0 1 2.13-1.7zm16.34-.39l.7 1a13.23 13.23 0 0 1-2.7 1.92 7.74 7.74 0 0 1-3.57.83 5.64 5.64 0 0 1-4.51-1.71 5 5 0 0 1-.81-4.6 9.13 9.13 0 0 1 3.51-5.3 10 10 0 0 1 6.22-2.12 8.45 8.45 0 0 1 2.38.3 6.36 6.36 0 0 1 1.32.43l-.43.71q-.3.49-.49.86l-.77 1.55-.87-.13.29-1.27a.76.76 0 0 0-.26-.2l-.55-.29a3.59 3.59 0 0 0-1.67-.39 4.81 4.81 0 0 0-3.34 1.3 6.52 6.52 0 0 0-1.93 3.46 4.91 4.91 0 0 0 .37 3.8 3.23 3.23 0 0 0 3 1.46 4.85 4.85 0 0 0 2.65-.66l.89-.59zm16.06-3.06a8.69 8.69 0 0 1-8.66 6.87 5.11 5.11 0 0 1-5.44-6.87 8.73 8.73 0 0 1 8.62-6.87 5.12 5.12 0 0 1 5.48 6.87zm-3.16 0a5.73 5.73 0 0 0-.17-3.84 2.57 2.57 0 0 0-2.52-1.46 4.25 4.25 0 0 0-3.16 1.45 8.06 8.06 0 0 0-1.94 3.85 5.75 5.75 0 0 0 .18 3.82 2.52 2.52 0 0 0 2.47 1.48 4.34 4.34 0 0 0 3.17-1.45 7.93 7.93 0 0 0 1.97-3.85z" transform="translate(-25.6 -243.48)"/><path class="cls-3" d="M652.44 303.31c-.13.59-.24 1.08-.32 1.47a10.27 10.27 0 0 0-.16 1.15l-.14 1.18 1.29.28-.2.86h-3.06l-1.5.06 1.77-7.65a5.87 5.87 0 0 0 .15-2.77 1.49 1.49 0 0 0-1.6-.9 3.2 3.2 0 0 0-2.35 1.16 7 7 0 0 0-1.43 3l-.5 2.17c-.13.59-.24 1.08-.32 1.47a9.6 9.6 0 0 0-.16 1.15l-.14 1.18 1.29.28-.2.86h-3.06l-3.09.06.2-.86 1.42-.28.38-1.18a25 25 0 0 0 .73-2.62l.63-2.71a5.84 5.84 0 0 0 .15-2.77 1.49 1.49 0 0 0-1.6-.9 3 3 0 0 0-2.34 1.16 6.92 6.92 0 0 0-1.45 3l-.5 2.17q-.17.75-.3 1.41t-.23 1.47a6.32 6.32 0 0 0-.08.92l1.29.28-.2.86h-3.06l-3.11.06.2-.86 1.42-.28.4-1.18c.11-.36.23-.77.37-1.24s.26-.93.36-1.39l.64-2.77.07-.32.06-.28q.1-.45.19-.94t.13-.94l.22-1.5-1.52-.32.2-.86a7.27 7.27 0 0 0 1-.06l1-.17q.73-.11 1.1-.18l1-.25h.88l-.65 2.36a9.57 9.57 0 0 1 2.42-1.72 5.61 5.61 0 0 1 2.43-.56 3 3 0 0 1 2.09.68 2.69 2.69 0 0 1 .85 1.77 7.54 7.54 0 0 1 .88-.84 11.09 11.09 0 0 1 1.18-.82 5.68 5.68 0 0 1 3.09-.8 2.78 2.78 0 0 1 2.45 1.09 3.5 3.5 0 0 1 .35 2.9z" transform="translate(-25.6 -243.48)"/><circle class="cls-3" cx="193.69" cy="60.29" r="5.15"/><circle class="cls-3" cx="543.4" cy="60.33" r="5.15"/></svg>