<svg id="Capa_1" data-name="Capa 1" xmlns="http://www.w3.org/2000/svg" viewBox="0 0 465.46 288"><defs><style>.cls-1{fill:#dedd86}.cls-2{fill:#b2b867}.cls-3{fill:#cb6138}</style></defs><title>logo2</title><path class="cls-1" d="M262.71 62.02h38.25V288h-38.25z"/><path class="cls-2" d="M214.02 101.45h38.25v186.56h-38.25zm-98.38-67.59h38.25v254.15h-38.25z"/><path class="cls-1" d="M65.95 81.73h38.25V288H65.95z"/><path class="cls-2" d="M15.25 209.87H53.5V288H15.25z"/><path class="cls-1" d="M165.33 125.38h38.25V288h-38.25z"/><path class="cls-3" d="M501.31 300.82l-31.07-15.48-4.35-2.17-3.77 4-51 47.37h-46.7a9.12 9.12 0 0 0-8.82 6.78l-16 60.21-33.87-188a9.12 9.12 0 0 0-17.8-.7l-36.6 139.36-28.65-80a9.12 9.12 0 0 0-17.22.14L171 382.57h-44.61a9.12 9.12 0 0 0 0 18.24h51.12a9.12 9.12 0 0 0 8.64-6.19l28.17-91.68 29.77 83.13a9.12 9.12 0 0 0 17.41-.76l33.57-127.94 33.82 187.76a9.12 9.12 0 0 0 8.61 7.49h.37a9.12 9.12 0 0 0 8.81-6.78l24.71-93.07h54.55l43.94-47.69 30.17 6.78 3.55 1.38 2.25-2.46 76.87-83.91z" transform="translate(-117.27 -206)"/></svg>